<svg width="240" height="400" viewBox="0 0 240 400" fill="none" xmlns="http://www.w3.org/2000/svg">
<circle cx="120" cy="100" r="100" fill="url(#paint0_linear_53_2)"/>
<circle cx="120" cy="300" r="100" transform="rotate(-180 120 300)" fill="url(#paint1_linear_53_2)"/>
<g filter="url(#filter0_b_53_2)">
<path d="M0 197C0 180.431 13.4315 167 30 167H210C226.569 167 240 180.431 240 197V203C240 219.569 226.569 233 210 233H30C13.4315 233 0 219.569 0 203V197Z" fill="white" fill-opacity="0.75"/>
</g>
<g filter="url(#filter1_b_53_2)">
<path d="M78.8759 183.296H82.5719C83.8519 183.296 84.9079 183.392 85.7399 183.584C86.6039 183.776 87.3399 184.16 87.9479 184.736C88.5879 185.312 89.0679 185.968 89.3879 186.704C89.7399 187.408 90.0119 188.496 90.2039 189.968C90.4919 192.176 90.6359 195.712 90.6359 200.576V200.72C90.6359 208.048 90.2679 212.592 89.5319 214.352C88.7959 216.208 87.7399 217.328 86.3639 217.712C85.6279 217.904 84.7159 218 83.6279 218H78.8759V213.44H80.5079C81.3399 213.44 81.8679 213.328 82.0919 213.104C82.3479 212.88 82.4759 212.528 82.4759 212.048V189.248C82.4759 188.768 82.3479 188.416 82.0919 188.192C81.8679 187.968 81.3399 187.856 80.5079 187.856H78.8759V183.296ZM76.9559 187.856H75.3239C74.4919 187.856 73.9479 187.968 73.6919 188.192C73.4679 188.416 73.3559 188.768 73.3559 189.248V212.048C73.3559 212.528 73.4679 212.88 73.6919 213.104C73.9479 213.328 74.4919 213.44 75.3239 213.44H76.9559V218H72.2039C69.8039 218 68.0599 217.264 66.9719 215.792C66.0759 214.608 65.5319 211.888 65.3399 207.632C65.2439 205.968 65.1959 203.664 65.1959 200.72V200.576C65.1959 193.056 65.5959 188.432 66.3959 186.704C66.7479 185.968 67.2279 185.312 67.8359 184.736C68.4759 184.16 69.2119 183.776 70.0439 183.584C70.9079 183.392 71.9799 183.296 73.2599 183.296H76.9559V187.856ZM103.608 218H100.68C99.2719 218 98.1999 217.664 97.4639 216.992C96.7599 216.288 96.4079 215.392 96.4079 214.304V186.992C96.4079 185.904 96.7599 185.024 97.4639 184.352C98.1999 183.648 99.2719 183.296 100.68 183.296H103.608V218ZM105.048 194H109.704C110.92 194 111.912 194.064 112.68 194.192C113.448 194.288 114.12 194.528 114.696 194.912C115.272 195.296 115.704 195.728 115.992 196.208C116.28 196.656 116.52 197.392 116.712 198.416C116.936 199.856 117.048 201.872 117.048 204.464C117.048 207.056 117.032 208.816 117 209.744C116.968 210.64 116.904 211.6 116.808 212.624C116.744 213.648 116.6 214.4 116.376 214.88C116.184 215.36 115.912 215.856 115.56 216.368C115.24 216.848 114.808 217.184 114.264 217.376C113.08 217.792 111.56 218 109.704 218H105.048V214.4H107.64C108.472 214.4 109 214.288 109.224 214.064C109.48 213.84 109.608 213.488 109.608 213.008V199.04C109.608 198.528 109.48 198.16 109.224 197.936C109 197.712 108.472 197.6 107.64 197.6H105.048V194ZM122.188 194H127.66C128.172 194 128.588 194.176 128.908 194.528C129.228 194.88 129.388 195.344 129.388 195.92V212.96C129.388 213.472 129.5 213.84 129.724 214.064C129.98 214.288 130.524 214.4 131.356 214.4H133.948V218H127.42C123.932 218 122.188 216.288 122.188 212.864V194ZM129.868 221.072V223.616C129.868 224.16 129.948 224.528 130.108 224.72C130.268 224.944 130.684 225.056 131.356 225.056H133.948V228.656H127.9C124.412 228.656 122.668 226.944 122.668 223.52V222.08C122.668 221.6 122.716 221.328 122.812 221.264C122.94 221.2 123.02 221.152 123.052 221.12C123.084 221.12 123.164 221.104 123.292 221.072C123.452 221.072 123.564 221.072 123.628 221.072C125.708 221.072 127.788 221.072 129.868 221.072ZM135.388 194H138.316C139.724 194 140.78 194.352 141.484 195.056C142.22 195.728 142.588 196.608 142.588 197.696V225.008C142.588 226.096 142.22 226.976 141.484 227.648C140.78 228.352 139.724 228.704 138.316 228.704H135.388V194ZM162.032 183.296H165.728C167.008 183.296 168.064 183.392 168.896 183.584C169.76 183.776 170.496 184.16 171.104 184.736C171.744 185.312 172.224 185.968 172.544 186.704C172.896 187.408 173.168 188.496 173.36 189.968C173.648 192.176 173.792 195.712 173.792 200.576V200.72C173.792 208.048 173.424 212.592 172.688 214.352C171.952 216.208 170.896 217.328 169.52 217.712C168.784 217.904 167.872 218 166.784 218H162.032V213.44H163.664C164.496 213.44 165.024 213.328 165.248 213.104C165.504 212.88 165.632 212.528 165.632 212.048V189.248C165.632 188.768 165.504 188.416 165.248 188.192C165.024 187.968 164.496 187.856 163.664 187.856H162.032V183.296ZM160.112 187.856H158.48C157.648 187.856 157.104 187.968 156.848 188.192C156.624 188.416 156.512 188.768 156.512 189.248V212.048C156.512 212.528 156.624 212.88 156.848 213.104C157.104 213.328 157.648 213.44 158.48 213.44H160.112V218H155.36C152.96 218 151.216 217.264 150.128 215.792C149.232 214.608 148.688 211.888 148.496 207.632C148.4 205.968 148.352 203.664 148.352 200.72V200.576C148.352 193.056 148.752 188.432 149.552 186.704C149.904 185.968 150.384 185.312 150.992 184.736C151.632 184.16 152.368 183.776 153.2 183.584C154.064 183.392 155.136 183.296 156.416 183.296H160.112V187.856Z" fill="#514F4F"/>
</g>
<defs>
<filter id="filter0_b_53_2" x="-21" y="146" width="282" height="108" filterUnits="userSpaceOnUse" color-interpolation-filters="sRGB">
<feFlood flood-opacity="0" result="BackgroundImageFix"/>
<feGaussianBlur in="BackgroundImage" stdDeviation="10.5"/>
<feComposite in2="SourceAlpha" operator="in" result="effect1_backgroundBlur_53_2"/>
<feBlend mode="normal" in="SourceGraphic" in2="effect1_backgroundBlur_53_2" result="shape"/>
</filter>
<filter id="filter1_b_53_2" x="61.1958" y="179.296" width="116.596" height="53.4082" filterUnits="userSpaceOnUse" color-interpolation-filters="sRGB">
<feFlood flood-opacity="0" result="BackgroundImageFix"/>
<feGaussianBlur in="BackgroundImage" stdDeviation="2"/>
<feComposite in2="SourceAlpha" operator="in" result="effect1_backgroundBlur_53_2"/>
<feBlend mode="normal" in="SourceGraphic" in2="effect1_backgroundBlur_53_2" result="shape"/>
</filter>
<linearGradient id="paint0_linear_53_2" x1="120" y1="0" x2="120" y2="200" gradientUnits="userSpaceOnUse">
<stop stop-color="#FF2F01"/>
<stop offset="1" stop-color="#C8C800"/>
</linearGradient>
<linearGradient id="paint1_linear_53_2" x1="120" y1="263.333" x2="120" y2="400" gradientUnits="userSpaceOnUse">
<stop stop-color="#25ACE0"/>
<stop offset="1" stop-color="#C8C800"/>
</linearGradient>
</defs>
</svg>
