<svg width="40" height="41" viewBox="0 0 40 41" fill="none" xmlns="http://www.w3.org/2000/svg">
<path d="M0 20.5439C0 31.5896 8.95431 40.5439 20 40.5439C31.0457 40.5439 40 31.5896 40 20.5439C40 9.49825 31.0457 0.543945 20 0.543945C8.95431 0.543945 0 9.49825 0 20.5439Z" fill="#1DA1F2"/>
<path d="M30 14.2939C29.25 14.6689 28.5 14.7939 27.625 14.9189C28.5 14.4189 29.125 13.6689 29.375 12.6689C28.625 13.1689 27.75 13.4189 26.75 13.6689C26 12.9189 24.875 12.4189 23.75 12.4189C21.125 12.4189 19.125 14.9189 19.75 17.4189C16.375 17.2939 13.375 15.6689 11.25 13.1689C10.125 15.0439 10.75 17.4189 12.5 18.6689C11.875 18.6689 11.25 18.4189 10.625 18.1689C10.625 20.0439 12 21.7939 13.875 22.2939C13.25 22.4189 12.625 22.5439 12 22.4189C12.5 24.0439 14 25.2939 15.875 25.2939C14.375 26.4189 12.125 27.0439 10 26.7939C11.875 27.9189 14 28.6689 16.25 28.6689C23.875 28.6689 28.125 22.2939 27.875 16.4189C28.75 15.9189 29.5 15.1689 30 14.2939Z" fill="white"/>
</svg>
